<?xml version="1.0" encoding="utf-8"?>
<!-- Generator: Adobe Illustrator 23.0.2, SVG Export Plug-In . SVG Version: 6.00 Build 0)  -->
<svg version="1.1" id="Layer_1" xmlns="http://www.w3.org/2000/svg" xmlns:xlink="http://www.w3.org/1999/xlink" x="0px" y="0px"
	 viewBox="0 0 1122 665" style="enable-background:new 0 0 1122 665;" xml:space="preserve">
<style type="text/css">
	.st0{fill:#FFFFFF;}
</style>
<g>
	<path class="st0" d="M103.08,190.54c16.09-11.88,24.59-28.89,24.59-49.17c0-43.71-32.7-59.6-63.34-71.06l-2.19-0.82
		C33,58.58,23.57,54.05,23.57,42.08c0-10.21,11.03-18.2,25.1-18.2c22.13,0,37.71,20.65,37.86,20.84l4.8,6.53l34.98-34.56l-3.6-4.88
		c-0.41-0.56-4.45-5.9-11.84-12.32H-1v93.56c13.03,10.08,29.21,16.93,44.36,22.23h0c27.09,9.47,33.71,14.59,33.71,26.09
		c0,13.66-18.61,17.3-29.6,17.3c-27.24,0-43.57-27.71-43.72-27.97l-4.17-7.3L-1,123.89v70.02c12.52,7.34,28.6,12.96,48.47,12.96
		C69.08,206.88,88.83,201.08,103.08,190.54z"/>
	<polygon class="st0" points="189.47,27.47 189.47,203.28 239.47,203.28 239.47,27.47 297.37,27.47 297.37,-0.5 131.57,-0.5 
		131.57,27.47 	"/>
	<path class="st0" d="M330.73,182.23c16,16.12,38.14,24.64,64.03,24.64s48.04-8.52,64.03-24.64c15.46-15.58,23.97-37.65,23.97-62.16
		V-0.5h-50v116.08c0,37.5-23.81,43.1-38,43.1c-33.06,0-38-27-38-43.1V-0.5h-50v120.58C306.77,144.58,315.28,166.65,330.73,182.23z"
		/>
	<path class="st0" d="M568.96,203.28c31.35,0,59.71-11.32,79.85-31.88c19.96-20.37,30.95-48.82,30.95-80.12
		s-10.99-59.76-30.95-80.12c-4.21-4.3-8.78-8.18-13.66-11.65H494.16v203.78H568.96z M569.56,27.47c17.45,0,32.45,6.46,43.39,18.67
		c10.46,11.68,16.22,27.71,16.22,45.13c0,41.89-29.98,63.8-59.6,63.8h-25.4V27.47H569.56z"/>
	<rect x="699.36" y="-0.5" class="st0" width="50" height="203.78"/>
	<path class="st0" d="M768.96,91.28c0,31.93,11.41,61.22,32.14,82.47c20.82,21.36,49.61,33.13,81.06,33.13s60.24-11.76,81.06-33.13
		c20.72-21.26,32.14-50.55,32.14-82.47S983.95,30.06,963.22,8.8c-3.25-3.34-6.7-6.44-10.32-9.3H811.42
		c-3.62,2.86-7.07,5.96-10.32,9.3C780.37,30.06,768.96,59.35,768.96,91.28z M882.16,23.88c36.27,0,62.6,28.35,62.6,67.4
		s-26.33,67.4-62.6,67.4s-62.6-28.35-62.6-67.4S845.89,23.88,882.16,23.88z"/>
	<path class="st0" d="M103.08,432.54c16.09-11.88,24.59-28.89,24.59-49.17c0-43.71-32.7-59.6-63.34-71.06l-2.19-0.82
		C33,300.58,23.57,296.05,23.57,284.08c0-10.21,11.03-18.2,25.1-18.2c22.13,0,37.71,20.65,37.86,20.84l4.8,6.53l34.98-34.56
		l-3.6-4.88c-1.09-1.48-27.24-36.14-74.03-36.14c-20.31,0-37.1,6.21-49.67,15.87v101.52c13.03,10.08,29.21,16.93,44.36,22.23h0
		c27.09,9.47,33.71,14.59,33.71,26.09c0,13.66-18.61,17.3-29.6,17.3c-27.24,0-43.57-27.71-43.72-27.97l-4.17-7.3L-1,365.89v70.02
		c12.52,7.34,28.6,12.96,48.47,12.96C69.08,448.88,88.83,443.08,103.08,432.54z"/>
	<path class="st0" d="M259.57,357.58c0,37.5-23.81,43.1-38,43.1c-33.06,0-38-27-38-43.1v-136.3h-50v140.8
		c0,24.5,8.51,46.58,23.97,62.16c16,16.12,38.14,24.64,64.03,24.64s48.04-8.52,64.03-24.64c15.46-15.58,23.97-37.65,23.97-62.16
		v-140.8h-50V357.58z"/>
	<path class="st0" d="M397.36,221.27h-78.4v224h50v-75.6h28.4c21.8,0,41.46-7.53,55.35-21.21c13.7-13.49,21.25-32.31,21.25-52.99
		s-7.55-39.5-21.25-52.99C438.82,228.81,419.16,221.27,397.36,221.27z M392.86,321.48h-23.9v-52h23.9c19.67,0,30.5,9.23,30.5,26
		S412.53,321.48,392.86,321.48z"/>
	<polygon class="st0" points="531.76,354.68 615.76,354.68 615.76,306.47 531.76,306.47 531.76,269.47 622.96,269.47 622.96,221.27 
		481.76,221.27 481.76,445.28 624.76,445.28 624.76,397.08 531.76,397.08 	"/>
	<path class="st0" d="M785.16,293.67c0-42.63-31.5-72.4-76.6-72.4h-76v224h50v-79.2h5.63l49.8,79.2h58.69l-54.49-84.69
		C769.29,350.15,785.16,325.76,785.16,293.67z M704.06,317.88h-21.5v-48.4h21.5c20.24,0,30.5,8.14,30.5,24.2
		S724.3,317.88,704.06,317.88z"/>
	<polygon class="st0" points="145.37,463.27 80.77,563 16.18,463.27 -1,463.27 -1,665.5 22.07,665.5 22.07,562.66 80.77,651.92 
		139.47,562.66 139.47,665.5 189.47,665.5 189.47,463.27 	"/>
	<path class="st0" d="M276.28,463.27L197.7,665.5h51.27l10.8-28.02h79.19l10.8,28.02h51.27l-78.58-202.23H276.28z M278.06,590.48
		l21.31-55.4l21.31,55.4H278.06z"/>
	<path class="st0" d="M503.52,554.32l-2.19-0.82c-29.15-10.92-38.57-15.45-38.57-27.43c0-10.21,11.03-18.2,25.1-18.2
		c22.13,0,37.71,20.65,37.86,20.84l4.8,6.53l34.98-34.56l-3.6-4.88c-1.09-1.48-27.24-36.14-74.03-36.14
		c-47.38,0-75.7,33.76-75.7,66.4c0,43.08,37.62,61.75,70.39,73.21h0c27.09,9.47,33.71,14.59,33.71,26.09
		c0,13.66-18.61,17.3-29.6,17.3c-27.24,0-43.57-27.71-43.72-27.97l-4.17-7.3l-37.86,31.97l2.86,5.05
		c0.49,0.87,6.19,10.69,17.6,21.07h130.81c9.64-10.88,14.69-24.53,14.69-40.12C566.87,581.66,534.17,565.78,503.52,554.32z"/>
	<path class="st0" d="M675.02,554.32l-2.19-0.82c-29.15-10.92-38.57-15.45-38.57-27.43c0-10.21,11.03-18.2,25.1-18.2
		c22.13,0,37.71,20.65,37.86,20.84l4.8,6.53L737,500.69l-3.6-4.88c-1.09-1.48-27.24-36.14-74.03-36.14
		c-47.38,0-75.7,33.76-75.7,66.4c0,43.08,37.62,61.75,70.39,73.21h0c27.09,9.47,33.71,14.59,33.71,26.09
		c0,13.66-18.61,17.3-29.6,17.3c-27.24,0-43.57-27.71-43.72-27.97l-4.17-7.3l-37.86,31.97l2.86,5.05
		c0.49,0.87,6.19,10.69,17.6,21.07h130.81c9.64-10.88,14.69-24.53,14.69-40.12C738.36,581.66,705.66,565.78,675.02,554.32z"/>
	<rect x="748.46" y="463.27" class="st0" width="50" height="202.23"/>
	<polygon class="st0" points="963.06,463.27 912.52,586.6 861.43,463.27 806.8,463.27 894.23,665.5 928.48,665.5 1015.91,463.27 	
		"/>
	<polygon class="st0" points="1122,639.08 1072.05,639.08 1072.05,596.68 1122,596.68 1122,548.47 1072.05,548.47 1072.05,511.47 
		1122,511.47 1122,463.27 1022.05,463.27 1022.05,665.5 1122,665.5 	"/>
</g>
</svg>
